<svg width="36" height="35" viewBox="0 0 36 35" fill="none" xmlns="http://www.w3.org/2000/svg">
<g style="mix-blend-mode:darken">
<path d="M25.7988 22.6258C27.9169 19.7351 28.8655 16.1512 28.455 12.591C28.0445 9.03084 26.305 5.75697 23.5846 3.4244C20.8642 1.09182 17.3636 -0.127433 13.783 0.0105538C10.2023 0.148541 6.80586 1.6336 4.27301 4.16861C1.74017 6.70363 0.257752 10.1017 0.122347 13.6829C-0.0130586 17.2641 1.20853 20.7644 3.54272 23.4835C5.87691 26.2026 9.15156 27.9399 12.7115 28.348C16.2715 28.756 19.8542 27.8047 22.743 25.6842H22.7408C22.805 25.7717 22.8764 25.8556 22.9552 25.9358L31.3767 34.3586C31.7869 34.7691 32.3433 34.9998 32.9235 35C33.5038 35.0002 34.0604 34.7699 34.4708 34.3596C34.8813 33.9494 35.112 33.3929 35.1122 32.8126C35.1124 32.2323 34.8821 31.6756 34.4719 31.2651L26.0504 22.8424C25.9722 22.7631 25.8881 22.6922 25.7988 22.6258ZM26.3632 14.2162C26.3632 15.7963 26.052 17.361 25.4474 18.8208C24.8428 20.2806 23.9566 21.6071 22.8394 22.7244C21.7223 23.8417 20.396 24.728 18.9363 25.3327C17.4767 25.9374 15.9123 26.2487 14.3324 26.2487C12.7525 26.2487 11.188 25.9374 9.72838 25.3327C8.26873 24.728 6.94247 23.8417 5.8253 22.7244C4.70814 21.6071 3.82196 20.2806 3.21735 18.8208C2.61275 17.361 2.30156 15.7963 2.30156 14.2162C2.30156 11.025 3.56909 7.96444 5.8253 5.70791C8.08152 3.45138 11.1416 2.18367 14.3324 2.18367C17.5231 2.18367 20.5832 3.45138 22.8394 5.70791C25.0956 7.96444 26.3632 11.025 26.3632 14.2162Z" fill="black"/>
</g>
</svg>
