<svg width="31" height="29" viewBox="0 0 31 29" fill="none" xmlns="http://www.w3.org/2000/svg">
<path d="M30.0834 11.7291C30.2292 11 29.6459 10.125 28.9167 10.125L20.6042 8.95828L16.8125 1.37495C16.6667 1.08328 16.5209 0.937451 16.2292 0.791617C15.5 0.354117 14.625 0.645784 14.1875 1.37495L10.5417 8.95828L2.22919 10.125C1.79169 10.125 1.50002 10.2708 1.35419 10.5625C0.770854 11.1458 0.770854 12.0208 1.35419 12.6041L7.33335 18.4375L5.87502 26.75C5.87502 27.0416 5.87502 27.3333 6.02085 27.625C6.45835 28.3541 7.33335 28.6458 8.06252 28.2083L15.5 24.2708L22.9375 28.2083C23.0834 28.3541 23.375 28.3541 23.6667 28.3541H23.9584C24.6875 28.2083 25.2709 27.4791 25.125 26.6041L23.6667 18.2916L29.6459 12.4583C29.9375 12.3125 30.0834 12.0208 30.0834 11.7291Z" fill="#FFFF00"/>
</svg>
