<svg width="29" height="29" viewBox="0 0 29 29" fill="none" xmlns="http://www.w3.org/2000/svg">
<path d="M28.9652 11.7685C28.9933 11.5788 28.9837 11.3854 28.9369 11.1994C28.8902 11.0134 28.8072 10.8384 28.6927 10.6845C28.5782 10.5306 28.4345 10.4009 28.2698 10.3026C28.1051 10.2043 27.9227 10.1395 27.7329 10.1118L19.4919 8.90724L15.8081 1.4012C15.6751 1.17177 15.4842 0.981328 15.2544 0.848991C15.0246 0.716654 14.764 0.647069 14.4988 0.647217C14.2337 0.647365 13.9732 0.71724 13.7435 0.849833C13.5139 0.982426 13.3231 1.17308 13.1904 1.40266L9.50811 8.90724L1.26707 10.1118C0.99807 10.1509 0.745347 10.2644 0.537417 10.4395C0.329487 10.6145 0.174625 10.8442 0.0903075 11.1026C0.00598995 11.3611 -0.00442764 11.6379 0.0602306 11.9019C0.124889 12.1659 0.262049 12.4066 0.456234 12.5968L6.42519 18.4491L5.01644 26.7091C4.97191 26.9772 5.00302 27.2524 5.10629 27.5038C5.20955 27.7552 5.38087 27.9728 5.601 28.1322C5.82112 28.2915 6.08133 28.3864 6.35239 28.406C6.62345 28.4256 6.89461 28.3693 7.1354 28.2433L14.5 24.3495L21.8631 28.2418C22.1036 28.3692 22.3749 28.4267 22.6464 28.4078C22.9179 28.389 23.1786 28.2946 23.3993 28.1353C23.6199 27.976 23.7915 27.7581 23.8948 27.5063C23.998 27.2545 24.0288 26.9789 23.9835 26.7106L22.5748 18.4491L28.5452 12.5954C28.7714 12.3728 28.9189 12.0825 28.9652 11.7685ZM21.2812 17.6747C21.1973 17.7573 21.1346 17.8588 21.0983 17.9708C21.062 18.0827 21.0532 18.2018 21.0727 18.3179L22.5456 26.9527L14.8398 22.8795C14.7348 22.825 14.6183 22.7965 14.5 22.7965C14.3817 22.7965 14.2651 22.825 14.1602 22.8795L6.45436 26.9541L7.92728 18.3179C7.94677 18.2018 7.93799 18.0827 7.90169 17.9708C7.86539 17.8588 7.80263 17.7573 7.71873 17.6747L1.47707 11.5541L10.0987 10.2941C10.216 10.2767 10.3272 10.2311 10.423 10.1612C10.5187 10.0914 10.5961 9.99936 10.6485 9.89307L14.5 2.04578L18.35 9.89453C18.4025 10.001 18.4802 10.0931 18.5762 10.163C18.6722 10.2328 18.7838 10.2783 18.9012 10.2956L27.5244 11.5541L21.2812 17.6747Z" fill="#FFFF00"/>
</svg>
